{"title":"Country.Strong.2010.PPVRip.XviD.EvoL","uid":6218562,"size":737718145,"categoryP":"video","categoryS":"movies","magnet":"?xt=urn:btih:fcb38208c5deba04a34d865759ed01b2cd6e2764&amp;dn=Country.Strong.2010.PPVRip.XviD.EvoL&amp;tr=udp%3A%2F%2Ftracker.openbittorrent.com%3A80&amp;tr=udp%3A%2F%2Fopen.demonii.com%3A1337&amp;tr=udp%3A%2F%2Ftracker.coppersurfer.tk%3A6969&amp;tr=udp%3A%2F%2Fexodus.desync.com%3A6969","seeders":1,"leechers":0,"uploader":"SaM","files":3,"time":1299251979,"description":"extratorrent.com\n &lt;a href=&quot;\nhttp://www.imdb.com/title/tt1555064/&quot; rel=&quot;nofollow&quot; target=&quot;_NEW&quot;&gt;\nhttp://www.imdb.com/title/tt1555064/&lt;/a&gt;\nQuote:\nFormat : AVI\nFormat/Info : Audio Video Interleave\nFile size : 704 MiB\nDuration : 1h 56mn\nOverall bit rate : 845 Kbps\n\nVideo\nID : 0\nFormat : MPEG-4 Visual\nFormat profile : Advanced Simple@L5\nFormat settings, BVOP : 2\nFormat settings, QPel : No\nFormat settings, GMC : No warppoints\nFormat settings, Matrix : Default (H.263)\nMuxing mode : Packed bitstream\nCodec ID : XVID\nDuration : 1h 56mn\nBit rate : 705 Kbps\nWidth : 656 pixels\nHeight : 384 pixels\nDisplay aspect ratio : 16:9\nFrame rate : 29.970 fps\nColor space : YUV\nChroma subsampling : 4:2:0\nBit depth : 8 bits\nScan type : Progressive\nCompression mode : Lossy\nBits/(Pixel*Frame) : 0.093\nStream size : 587 MiB (83%)\n\nAudio\nID : 1\nFormat : MPEG Audio\nCodec ID/Hint : MP3\nDuration : 1h 56mn\nBit rate mode : Constant\nBit rate : 128 Kbps\nChannel(s) : 2 channels\nSampling rate : 48.0 KHz\nCompression mode : Lossy\nStream size : 107 MiB (15%)\nInterleave, duration : 33 ms (1.00 video frame)\nInterleave, preload duration : 500 ms\nWriting library : LAME3.98r\n\n\nScreens:-\n &lt;a href=&quot;\nhttp://leetleech.org/images/41498147697693102178.png&quot; rel=&quot;nofollow&quot; target=&quot;_NEW&quot;&gt;\nhttp://leetleech.org/images/41498147697693102178.png&lt;/a&gt;\n &lt;a href=&quot;\nhttp://leetleech.org/images/95863216435444790371.png&quot; rel=&quot;nofollow&quot; target=&quot;_NEW&quot;&gt;\nhttp://leetleech.org/images/95863216435444790371.png&lt;/a&gt;\n &lt;a href=&quot;\nhttp://leetleech.org/images/66485432876216809505.png&quot; rel=&quot;nofollow&quot; target=&quot;_NEW&quot;&gt;\nhttp://leetleech.org/images/66485432876216809505.png&lt;/a&gt;\n &lt;a href=&quot;\nhttp://leetleech.org/images/55302074127845605108.png&quot; rel=&quot;nofollow&quot; target=&quot;_NEW&quot;&gt;\nhttp://leetleech.org/images/55302074127845605108.png&lt;/a&gt;","torrent":{"xt":"urn:btih:fcb38208c5deba04a34d865759ed01b2cd6e2764","amp;dn":"Country.Strong.2010.PPVRip.XviD.EvoL","amp;tr":["udp%3A%2F%2Ftracker.openbittorrent.com%3A80","udp%3A%2F%2Fopen.demonii.com%3A1337","udp%3A%2F%2Ftracker.coppersurfer.tk%3A6969","udp%3A%2F%2Fexodus.desync.com%3A6969"],"infoHash":"fcb38208c5deba04a34d865759ed01b2cd6e2764","infoHashBuffer":{"type":"Buffer","data":[252,179,130,8,197,222,186,4,163,77,134,87,89,237,1,178,205,110,39,100]},"announce":[],"urlList":[]}}